<?xml version="1.0" encoding="UTF-8" standalone="no"?>
<!-- Created with Inkscape (http://www.inkscape.org/) -->

<svg
   width="1920"
   height="1080"
   viewBox="0 0 1920 1080"
   version="1.1"
   id="svg1"
   inkscape:export-filename="github.png"
   inkscape:export-xdpi="96"
   inkscape:export-ydpi="96"
   inkscape:version="1.4.4 (dcaf3e7d9e, 2026-05-05)"
   sodipodi:docname="github.svg"
   xmlns:inkscape="http://www.inkscape.org/namespaces/inkscape"
   xmlns:sodipodi="http://sodipodi.sourceforge.net/DTD/sodipodi-0.dtd"
   xmlns="http://www.w3.org/2000/svg"
   xmlns:svg="http://www.w3.org/2000/svg">
  <sodipodi:namedview
     id="namedview1"
     pagecolor="#505050"
     bordercolor="#eeeeee"
     borderopacity="1"
     inkscape:showpageshadow="0"
     inkscape:pageopacity="0"
     inkscape:pagecheckerboard="0"
     inkscape:deskcolor="#505050"
     inkscape:document-units="px"
     inkscape:zoom="0.3734375"
     inkscape:cx="960"
     inkscape:cy="539.58159"
     inkscape:window-width="1470"
     inkscape:window-height="787"
     inkscape:window-x="0"
     inkscape:window-y="0"
     inkscape:window-maximized="1"
     inkscape:current-layer="layer1" />
  <defs
     id="defs1" />
  <g
     inkscape:label="Layer 1"
     inkscape:groupmode="layer"
     id="layer1">
    <g
       id="g3"
       transform="matrix(9.3063101,0,0,9.3063101,2.7740586,1122.4573)">
				<polygon
   fill="#2c7c4e"
   points="5.845,-59.324 7.6,-57.569 9.354,-59.324 11.094,-57.585 12.845,-59.336 14.6,-57.581 16.354,-59.336 18.098,-57.594 19.852,-59.347 21.607,-57.593 23.362,-59.347 25.101,-57.608 26.852,-59.359 16.361,-69.855 "
   id="polygon2" />

				<polygon
   fill="#92bc50"
   points="58.267,-59.313 36.007,-80.245 23.281,-66.407 32.103,-57.631 33.854,-59.382 35.608,-57.627 37.363,-59.382 39.103,-57.643 40.853,-59.394 42.608,-57.639 44.364,-59.394 46.106,-57.65 47.86,-59.405 49.615,-57.649 51.371,-59.405 53.109,-57.666 54.861,-59.416 56.616,-57.661 "
   id="polygon3" />

			</g>
    <g
       id="g7"
       transform="matrix(9.3063101,0,0,9.3063101,2.7740586,1122.4573)">
				<polygon
   fill="#808184"
   points="21.371,-98.444 0,-98.444 0,-77.073 2.666,-77.073 2.666,-95.684 21.371,-95.684 "
   id="polygon4" />

				<polygon
   fill="#808184"
   points="64.112,-77.073 64.112,-98.444 42.741,-98.444 42.741,-95.778 61.351,-95.778 61.351,-77.073 "
   id="polygon5" />

				<polygon
   fill="#808184"
   points="42.741,-34.262 64.112,-34.262 64.112,-55.633 61.446,-55.633 61.446,-37.021 42.741,-37.022 "
   id="polygon6" />

				<polygon
   fill="#808184"
   points="0,-55.633 0,-34.262 21.371,-34.262 21.371,-36.928 2.76,-36.928 2.76,-55.633 "
   id="polygon7" />

			</g>
    <rect
       x="228.8707"
       y="719.39185"
       fill="none"
       width="229.67044"
       height="168.4256"
       id="rect7"
       style="stroke-width:9.30632" />
    <text
       id="text8"
       x="228.87013"
       y="804.97083"
       style="font-size:111.676px;stroke-width:9.30632"><tspan
         x="228.87013"
         y="804.97083"
         fill="#808184"
         font-family="National-BoldItalic"
         font-size="128.104px"
         letter-spacing="-1"
         id="tspan7"
         style="stroke-width:9.30632">A</tspan><tspan
         x="299.58878"
         y="804.97083"
         fill="#808184"
         font-family="National-BoldItalic"
         font-size="128.104px"
         id="tspan8"
         style="stroke-width:9.30632">R</tspan></text>
    <text
       id="text17"
       x="682.85205"
       y="464.15393"
       style="font-size:111.676px;stroke-width:9.30632"><tspan
         x="682.85205"
         y="464.15393"
         fill="#808184"
         font-family="Montserrat-Bold"
         font-size="365.61px"
         letter-spacing="-2"
         id="tspan9"
         style="stroke-width:9.30632">A</tspan><tspan
         x="942.79602"
         y="464.15393"
         fill="#808184"
         font-family="Montserrat-Bold"
         font-size="365.61px"
         id="tspan10"
         style="stroke-width:9.30632">T</tspan><tspan
         x="1176.0587"
         y="464.15393"
         fill="#808184"
         font-family="Montserrat-Bold"
         font-size="365.61px"
         letter-spacing="1"
         id="tspan11"
         style="stroke-width:9.30632">L</tspan><tspan
         x="1413.6951"
         y="464.15393"
         fill="#808184"
         font-family="Montserrat-Bold"
         font-size="365.61px"
         id="tspan12"
         style="stroke-width:9.30632">AS</tspan><tspan
         x="1927.0037"
         y="464.15393"
         fill="#808184"
         font-family="Montserrat-Regular"
         font-size="365.61px"
         id="tspan13"
         style="stroke-width:9.30632"></tspan><tspan
         x="682.85205"
         y="803.64856"
         fill="#808184"
         font-family="Montserrat-Regular"
         font-size="365.61px"
         letter-spacing="-3"
         id="tspan14"
         style="stroke-width:9.30632">OT</tspan><tspan
         x="1133.6406"
         y="803.64856"
         fill="#808184"
         font-family="Montserrat-Regular"
         font-size="365.61px"
         letter-spacing="-3"
         id="tspan15"
         style="stroke-width:9.30632">O</tspan><tspan
         x="1411.1362"
         y="803.64856"
         fill="#808184"
         font-family="Montserrat-Regular"
         font-size="365.61px"
         id="tspan16"
         style="stroke-width:9.30632">K</tspan><tspan
         x="1675.8354"
         y="803.64856"
         fill="#808184"
         font-family="Montserrat-Regular"
         font-size="365.61px"
         id="tspan17"
         style="stroke-width:9.30632">A</tspan></text>
  </g>
</svg>
